<svg id="Layer_1" data-name="Layer 1" xmlns="http://www.w3.org/2000/svg" viewBox="0 0 73.4 73.9"><defs><style>.cls-1{fill:#fff;}</style></defs><path class="cls-1" d="M50.3,31.5H5.5A5.55,5.55,0,0,0,0,37H0a5.55,5.55,0,0,0,5.5,5.5H50.4A5.55,5.55,0,0,0,55.9,37h0A5.57,5.57,0,0,0,50.3,31.5Z"/><path class="cls-1" d="M67.8,0H5.5A5.55,5.55,0,0,0,0,5.5H0A5.55,5.55,0,0,0,5.5,11H67.9a5.55,5.55,0,0,0,5.5-5.5h0A5.64,5.64,0,0,0,67.8,0Z"/><path class="cls-1" d="M67.8,62.9H5.5A5.55,5.55,0,0,0,0,68.4H0a5.55,5.55,0,0,0,5.5,5.5H67.9a5.55,5.55,0,0,0,5.5-5.5h0A5.64,5.64,0,0,0,67.8,62.9Z"/></svg>